# xmcd
#
# Track frame offsets:
#	150
#	14475
#	32393
#	50879
#	70129
#	86248
#	107072
#	125616
#	142379
#	158255
#	177733
#	201180
#
# Disc length: 2943 seconds
#
# Revision: 1
# Processed by: cddbd v1.5.2PL0 Copyright (c) Steve Scherf et al.
# Submitted via: EZCDAudioConverter 7.0.5.1
#
DISCID=b00b7d0c
DTITLE=Alex Williams - Better Than Myself
DYEAR=2016
DGENRE=Country
TTITLE0=Better Than Myself
TTITLE1=Hellbent Hallelujah
TTITLE2=More Than Survival
TTITLE3=Freak Flag
TTITLE4=Week Without A Drink
TTITLE5=Little Too Stoned
TTITLE6=Old Tattoo
TTITLE7=Strange Days
TTITLE8=Pay No Mind
TTITLE9=Can't Get Enough Of You
TTITLE10=Few Short Miles (Bobby's Song)
TTITLE11=Last Cross
EXTD=
EXTT0=
EXTT1=
EXTT2=
EXTT3=
EXTT4=
EXTT5=
EXTT6=
EXTT7=
EXTT8=
EXTT9=
EXTT10=
EXTT11=
PLAYORDER=
